<svg width="24" height="24" viewBox="0 0 24 24" fill="none" xmlns="http://www.w3.org/2000/svg">
<g clip-path="url(#clip0_3218_11820)">
<path d="M12.0005 23.0625C12 23.0625 12 23.0625 11.9996 23.0625C11.7412 23.063 11.5317 23.273 11.5317 23.5312C11.5317 23.7895 11.7413 23.9995 11.9996 24H12.0005C12.2588 24 12.4692 23.7895 12.4692 23.5312C12.4692 23.273 12.2588 23.0625 12.0005 23.0625Z" fill="#CFCFCF"/>
<path d="M23.5312 0H15.5367C15.2779 0 15.068 0.209859 15.068 0.46875V4.06088C15.068 4.22405 15.1528 4.37545 15.2919 4.46067C17.1574 5.60269 18.3398 7.66031 18.4175 9.87211C18.4179 9.88303 18.4204 10.265 18.4177 10.3449C18.3594 12.0116 17.6969 13.5699 16.5375 14.7548C15.3243 15.9938 13.7128 16.6758 12 16.6763C10.2871 16.6758 8.67558 15.9938 7.46245 14.7548C6.24745 13.5131 5.57808 11.8613 5.57808 10.1044C5.57808 9.01781 5.84245 7.94156 6.34261 6.99141C6.89292 5.94609 7.71089 5.07094 8.70792 4.46063C8.8462 4.37625 8.93198 4.22297 8.93198 4.06078V0.46875C8.93198 0.345469 8.88183 0.224531 8.79464 0.137344C8.7075 0.0501563 8.58656 0 8.46328 0H0.46875C0.345469 0 0.224531 0.0501563 0.137344 0.137344C0.0501094 0.224531 0 0.345469 0 0.46875V4.06078C0 4.18453 0.0501094 4.305 0.137344 4.39219C0.224531 4.47938 0.345469 4.52953 0.46875 4.52953H2.60812C1.78125 5.56828 1.13672 6.72656 0.692813 7.9725C0.232969 9.26344 0 10.6186 0 12C0 13.4386 0.252187 14.8453 0.749016 16.1817C1.22855 17.4727 1.92375 18.6638 2.81437 19.7222C3.69839 20.7731 4.74609 21.6577 5.92734 22.3523C7.13437 23.0616 8.44359 23.5495 9.81891 23.8022C9.84656 23.8073 9.87563 23.8102 9.9038 23.8102C10.1297 23.8102 10.3233 23.6484 10.3645 23.4258C10.4109 23.1717 10.2422 22.9266 9.98817 22.8802C4.74281 21.9164 0.936516 17.3409 0.9375 12C0.9375 9.15281 2.01703 6.44813 3.97687 4.38375C4.10625 4.24734 4.14187 4.04813 4.06781 3.87609C3.99375 3.70359 3.82453 3.59203 3.63703 3.59203H0.9375V0.9375H7.99453V3.80391C6.95672 4.49203 6.09891 5.44313 5.51344 6.55453C5.23167 7.08891 5.01464 7.6575 4.86792 8.24484C4.71698 8.84953 4.64058 9.47531 4.64058 10.1044C4.64058 11.1164 4.83464 12.0989 5.21761 13.0242C5.40188 13.4691 5.62964 13.898 5.89495 14.2997C6.15792 14.6972 6.4598 15.0713 6.79261 15.4106C7.12495 15.7505 7.491 16.0594 7.88058 16.3284C8.27428 16.5998 8.6948 16.8333 9.13163 17.0217C10.0401 17.4145 11.0048 17.6138 11.999 17.6138H12.0008C12.9951 17.6138 13.9597 17.4145 14.8682 17.0217C15.3051 16.8333 15.7255 16.5998 16.1193 16.328C16.5088 16.0594 16.8749 15.7505 17.2073 15.4106C17.5401 15.0713 17.8419 14.6972 18.1049 14.2997C18.3702 13.898 18.598 13.4691 18.7822 13.0242C19.1318 12.1795 19.324 11.2871 19.3548 10.3681C19.3578 10.2804 19.3546 9.84769 19.354 9.8318C19.3251 8.99981 19.1639 8.1877 18.8727 7.41422C18.8682 7.40245 18.8633 7.39092 18.858 7.37967C18.7229 7.02516 18.5621 6.68058 18.3747 6.35002C17.7935 5.32458 16.9777 4.449 16.0053 3.80395V0.9375H23.0625V3.59203H20.363C20.1755 3.59203 20.0063 3.70359 19.9322 3.87609C19.8581 4.04813 19.8937 4.24781 20.0231 4.38375C21.983 6.44813 23.0625 9.15281 23.0625 12C23.0634 17.3405 19.2577 21.9159 14.0128 22.8802C13.8895 22.9027 13.7827 22.9716 13.7114 23.0747C13.6406 23.1778 13.6139 23.3025 13.6364 23.4258C13.6771 23.6484 13.8707 23.8097 14.0966 23.8097C14.1252 23.8097 14.1539 23.8073 14.1819 23.8017C15.5573 23.5491 16.866 23.0616 18.073 22.3519C19.2543 21.6577 20.3015 20.7727 21.1855 19.7217C22.0762 18.6633 22.7713 17.4722 23.2508 16.1813C23.7478 14.8453 23.9995 13.4386 24 12C24 10.6186 23.767 9.26344 23.3072 7.9725C22.8633 6.72656 22.2188 5.56828 21.3919 4.52953H23.5312C23.6545 4.52953 23.7755 4.47938 23.8626 4.39219C23.9439 4.31086 23.9925 4.20056 23.9987 4.08567C23.9995 4.07808 24 4.06997 24 4.06092V4.06078V0.46875C24 0.209859 23.7901 0 23.5312 0Z" fill="#CFCFCF"/>
<path d="M5.88513 2.8125C6.14402 2.8125 6.35388 2.60263 6.35388 2.34375C6.35388 2.08487 6.14402 1.875 5.88513 1.875C5.62625 1.875 5.41638 2.08487 5.41638 2.34375C5.41638 2.60263 5.62625 2.8125 5.88513 2.8125Z" fill="#CFCFCF"/>
<path d="M18.1149 2.8125C18.3738 2.8125 18.5836 2.60263 18.5836 2.34375C18.5836 2.08487 18.3738 1.875 18.1149 1.875C17.856 1.875 17.6461 2.08487 17.6461 2.34375C17.6461 2.60263 17.856 2.8125 18.1149 2.8125Z" fill="#CFCFCF"/>
<path d="M12 18.7031C11.0954 18.7031 10.3594 19.4391 10.3594 20.3438C10.3594 21.2484 11.0954 21.9844 12 21.9844C12.9046 21.9844 13.6406 21.2484 13.6406 20.3438C13.6406 19.4391 12.9046 18.7031 12 18.7031ZM12 21.0469C11.6123 21.0469 11.2969 20.7315 11.2969 20.3438C11.2969 19.956 11.6123 19.6406 12 19.6406C12.3877 19.6406 12.7031 19.956 12.7031 20.3438C12.7031 20.7315 12.3877 21.0469 12 21.0469Z" fill="#CFCFCF"/>
<path d="M5.50781 18.9375C5.50781 19.7775 6.1912 20.4609 7.03125 20.4609C7.8713 20.4609 8.55469 19.7775 8.55469 18.9375C8.55469 18.0975 7.8713 17.4141 7.03125 17.4141C6.1912 17.4141 5.50781 18.0975 5.50781 18.9375ZM7.61719 18.9375C7.61719 19.2606 7.35436 19.5234 7.03125 19.5234C6.70814 19.5234 6.44531 19.2606 6.44531 18.9375C6.44531 18.6144 6.70814 18.3516 7.03125 18.3516C7.35436 18.3516 7.61719 18.6144 7.61719 18.9375Z" fill="#CFCFCF"/>
<path d="M21.6562 15.1875C21.6562 14.4121 21.0254 13.7812 20.25 13.7812C19.4746 13.7812 18.8438 14.4121 18.8438 15.1875C18.8438 15.9629 19.4746 16.5938 20.25 16.5938C21.0254 16.5938 21.6562 15.9629 21.6562 15.1875ZM19.7812 15.1875C19.7812 14.929 19.9915 14.7188 20.25 14.7188C20.5085 14.7188 20.7188 14.929 20.7188 15.1875C20.7188 15.446 20.5085 15.6562 20.25 15.6562C19.9915 15.6562 19.7812 15.446 19.7812 15.1875Z" fill="#CFCFCF"/>
<path d="M2.39062 15.1875C2.39062 15.9629 3.02147 16.5938 3.79688 16.5938C4.57228 16.5938 5.20312 15.9629 5.20312 15.1875C5.20312 14.4121 4.57228 13.7812 3.79688 13.7812C3.02147 13.7812 2.39062 14.4121 2.39062 15.1875ZM4.26562 15.1875C4.26562 15.446 4.05534 15.6562 3.79688 15.6562C3.53841 15.6562 3.32812 15.446 3.32812 15.1875C3.32812 14.929 3.53841 14.7188 3.79688 14.7188C4.05534 14.7188 4.26562 14.929 4.26562 15.1875Z" fill="#CFCFCF"/>
<path d="M18.4922 18.9375C18.4922 18.0975 17.8088 17.4141 16.9688 17.4141C16.1287 17.4141 15.4453 18.0975 15.4453 18.9375C15.4453 19.7775 16.1287 20.4609 16.9688 20.4609C17.8088 20.4609 18.4922 19.7775 18.4922 18.9375ZM16.3828 18.9375C16.3828 18.6144 16.6456 18.3516 16.9688 18.3516C17.2919 18.3516 17.5547 18.6144 17.5547 18.9375C17.5547 19.2606 17.2919 19.5234 16.9688 19.5234C16.6456 19.5234 16.3828 19.2606 16.3828 18.9375Z" fill="#CFCFCF"/>
</g>
<defs>
<clipPath id="clip0_3218_11820">
<rect width="24" height="24" fill="white"/>
</clipPath>
</defs>
</svg>
