<svg width="100" height="48" viewBox="0 0 100 48" fill="none" xmlns="http://www.w3.org/2000/svg">
<g clip-path="url(#clip0_3218_12218)">
<path fill-rule="evenodd" clip-rule="evenodd" d="M96.4458 21.4293H92.5882L91.0451 32.9304H86.4157L87.9587 21.4293H84.1009L84.8731 17.4634H97.218L96.4458 21.4293ZM77.9282 21.4293L77.5425 23.0159H82.1718L81.3996 26.9818H76.7711L76.3852 28.9647H82.172L81.3998 32.9306H71.3701L73.6847 17.4636H83.7144L82.9422 21.4295H77.9284L77.9282 21.4293ZM68.2837 24.9988C68.2837 24.9988 70.5983 25.6764 70.5983 28.172C70.5983 30.6676 68.095 32.9318 65.5831 32.9318H56.7104L59.025 17.4648H65.969C67.2014 17.4648 71.3701 17.1358 71.3701 20.638C71.3701 24.1402 68.2839 24.9978 68.2839 24.9978L68.2837 24.9988ZM62.111 28.9645H64.4258C65.7986 28.9645 66.4888 26.9816 64.4258 26.9816H62.4969L62.111 28.9645ZM64.8117 21.4293H63.2687L62.8828 23.4124H64.8117C66.4553 23.4113 66.9202 21.4293 64.8117 21.4293Z" fill="black"/>
<path fill-rule="evenodd" clip-rule="evenodd" d="M97.218 20.2385H93.3598L91.8166 31.7396H87.1873L88.7303 20.2385H84.8725L85.6447 16.2726H97.9902L97.218 20.2385ZM78.7004 20.2385L78.3145 21.8251H82.944L82.1718 25.7911H77.5427L77.1568 27.7739H82.9436L82.1714 31.7398H72.1417L74.4563 16.2728H84.4866L83.7144 20.2387H78.7L78.7004 20.2385ZM69.0559 23.8078C69.0559 23.8078 71.3705 24.4856 71.3705 26.981C71.3705 29.4764 68.8672 31.7409 66.3553 31.7409H57.482L59.796 16.2726H66.7401C67.9722 16.2726 72.1411 15.9436 72.1411 19.4458C72.1411 22.948 69.0555 23.8078 69.0555 23.8078H69.0559ZM62.8828 27.7737H65.1974C66.5704 27.7737 67.2606 25.7909 65.1974 25.7909H63.2687L62.8828 27.7737ZM65.5833 20.2385H64.0401L63.6544 22.2216H65.5833C67.2269 22.2216 67.6918 20.2385 65.5833 20.2385Z" fill="url(#paint0_linear_3218_12218)"/>
<path fill-rule="evenodd" clip-rule="evenodd" d="M30.6742 7.93304C41.4349 7.93304 50.1574 16.9022 50.1574 27.9665C50.1574 39.0308 41.4349 48 30.6742 48C19.9135 48 11.191 39.0308 11.191 27.9667C11.191 16.9026 19.9135 7.93304 30.6742 7.93304Z" fill="#145F50"/>
<path fill-rule="evenodd" clip-rule="evenodd" d="M29.5058 7.93304C39.6212 7.93304 47.8208 16.3724 47.8208 26.7832C47.8208 37.194 39.6204 45.6331 29.5058 45.6331C19.3911 45.6331 11.1908 37.1938 11.1908 26.7832C11.1908 16.3726 19.3903 7.93304 29.5058 7.93304Z" fill="#196946"/>
<path fill-rule="evenodd" clip-rule="evenodd" d="M28.5516 9.13327C38.14 9.13327 45.9128 17.125 45.9128 26.9834C45.9128 36.8419 38.14 44.8334 28.5516 44.8334C18.9633 44.8334 11.1904 36.8417 11.1904 26.9834C11.1904 17.1252 18.9631 9.13327 28.5516 9.13327Z" fill="#237841"/>
<path opacity="0.55" fill-rule="evenodd" clip-rule="evenodd" d="M38.0936 7.03311C38.7361 7.74179 39.3327 8.49187 39.8798 9.27866L37.2511 9.62571C36.9852 9.29332 36.7118 8.96496 36.4217 8.64643C34.7046 6.74755 32.6312 5.21535 30.3229 4.13961C28.0146 3.06387 25.5179 2.46622 22.979 2.38168C20.44 2.29714 17.91 2.7274 15.5372 3.64726C13.1643 4.56712 10.9962 5.95808 9.16007 7.73865C1.38857 15.2361 0.993757 27.7982 8.27838 35.797C9.99548 37.696 12.069 39.2283 14.3774 40.3041C16.6858 41.3799 19.1826 41.9776 21.7216 42.0621C24.2607 42.1466 26.7908 41.7163 29.1638 40.7963C31.5367 39.8764 33.7048 38.4853 35.541 36.7045C36.8777 35.4141 38.0272 33.9378 38.9551 32.3199L41.2824 32.88C40.1886 34.9405 38.7797 36.8121 37.1082 38.4251C35.0539 40.4174 32.6282 41.9738 29.9733 43.0031C27.3184 44.0324 24.4877 44.5139 21.647 44.4194C18.8063 44.3248 16.0128 43.6561 13.4301 42.4525C10.8474 41.2489 8.52759 39.5345 6.60646 37.4099C-1.54441 28.4608 -1.10207 14.4062 7.5929 6.01788C9.64719 4.02571 12.0728 2.46943 14.7276 1.44022C17.3824 0.411019 20.213 -0.0704118 23.0536 0.0241379C25.8942 0.118688 28.6876 0.787316 31.2701 1.99085C33.8527 3.19438 36.1725 4.90861 38.0936 7.03311Z" fill="#2DA041"/>
<path opacity="0.65" fill-rule="evenodd" clip-rule="evenodd" d="M21.7968 45.2238C20.8465 45.2218 19.8972 45.1564 18.9553 45.028L20.5227 42.7969C20.9442 42.825 21.3684 42.8443 21.7968 42.8443C32.5565 42.8443 41.2788 33.8776 41.2788 22.8165C41.2788 11.7554 32.5565 2.78862 21.7968 2.78862C11.0371 2.78862 2.31462 11.7554 2.31462 22.8165C2.31459 24.715 2.57746 26.6041 3.09553 28.4285L1.08702 29.8042C0.366108 27.5471 -0.000704954 25.1891 1.01709e-06 22.8165C1.01709e-06 10.4411 9.75883 0.408905 21.7968 0.408905C33.8348 0.408905 43.5937 10.4411 43.5937 22.8165C43.5937 35.1918 33.8348 45.2238 21.7968 45.2238Z" fill="#2DA041"/>
<path opacity="0.65" fill-rule="evenodd" clip-rule="evenodd" d="M50.3938 29.6457C48.8565 38.4721 43.2262 41.2579 39.1173 41.2579C31.4216 41.2579 28.2564 33.9438 30.669 24.2545C32.8359 15.5524 36.9852 13.4717 41.9726 13.4717C47.4077 13.4717 52.4423 17.8839 50.3938 29.6457ZM40.7219 21.7661C39.3953 21.7661 38.276 22.5682 37.757 25.9505C37.2359 29.3467 37.2076 32.5488 39.9617 32.5488C41.4555 32.5488 42.6528 31.4677 43.0268 28.0426C43.5252 23.4778 42.8038 21.7661 40.7219 21.7661ZM21.2189 30.9465L27.3915 33.7227L26.6193 39.6715L9.64458 36.8953L10.0303 34.9125L20.0608 24.2044C20.0608 24.2044 22.6589 19.2803 21.2181 18.6521C19.7772 18.0239 18.9035 21.4293 18.9035 21.4293L11.9592 20.6352C11.9592 20.6352 14.7021 17.6702 20.4465 14.2887C26.1908 10.9072 29.3196 19.0486 29.3196 19.0486C29.3196 19.0486 28.9165 24.0896 26.2334 26.9804C23.5503 29.8713 21.2181 30.9465 21.2181 30.9465H21.2189Z" fill="#005556"/>
<path fill-rule="evenodd" clip-rule="evenodd" d="M52.0809 26.1875C50.2086 34.6281 44.3391 37.292 40.1217 37.292C32.2247 37.292 29.2208 30.2977 32.0204 21.0318C34.535 12.7102 38.8623 10.7203 43.9796 10.7203C49.5568 10.7203 54.5757 14.9397 52.0809 26.1875ZM42.4185 18.6521C41.0569 18.6521 39.882 19.4193 39.2365 22.6536C38.5882 25.9015 38.4522 28.9635 41.2785 28.9635C42.8114 28.9635 44.076 27.9298 44.5742 24.6543C45.2385 20.2896 44.5555 18.6521 42.4189 18.6521H42.4185ZM21.2181 30.1535H28.9337L27.7764 36.8953H10.0303L10.8025 30.1535C10.8025 30.1535 13.3074 28.2837 16.2035 26.1875C19.0997 24.0914 20.8484 21.8597 21.6046 20.6352C22.3607 19.4107 22.4546 17.859 21.2187 17.859C19.5252 17.859 19.2898 20.6352 19.2898 20.6352H11.9592C11.9592 20.6352 12.6878 16.2477 15.0456 13.4962C17.4034 10.7448 23.2834 9.81732 27.3907 11.5134C29.9778 12.5816 31.8335 17.3644 28.548 23.0145C26.0976 27.2289 21.2181 30.1535 21.2181 30.1535Z" fill="url(#paint1_linear_3218_12218)"/>
</g>
<defs>
<linearGradient id="paint0_linear_3218_12218" x1="77.7368" y1="31.7384" x2="77.7368" y2="16.2678" gradientUnits="userSpaceOnUse">
<stop stop-color="#DCDCDC"/>
<stop offset="1" stop-color="white"/>
</linearGradient>
<linearGradient id="paint1_linear_3218_12218" x1="31.383" y1="37.293" x2="31.383" y2="10.657" gradientUnits="userSpaceOnUse">
<stop stop-color="#DEDEDE"/>
<stop offset="1" stop-color="#FCFCFC"/>
</linearGradient>
<clipPath id="clip0_3218_12218">
<rect width="100" height="48" fill="white"/>
</clipPath>
</defs>
</svg>
