<svg width="104" height="32" viewBox="0 0 104 32" fill="none" xmlns="http://www.w3.org/2000/svg">
<g clip-path="url(#clip0_3218_12335)">
<path d="M0 0.505262C0 0.926315 0.365405 1.12281 1.63027 1.37544C3.68216 1.85263 7.50486 3.28421 8.51676 3.98596C8.93838 4.29474 9.44432 4.88421 9.66919 5.27719C9.86595 5.69825 11.5243 11.8737 13.3795 19.0316L16.7243 32L21.1935 31.9439L25.6627 31.8596L32.24 16.2807C35.8378 7.7193 38.7892 0.617542 38.7892 0.477192C38.7892 0.364912 36.8497 0.280701 34.5168 0.280701H30.2162L26 10.9474C23.6951 16.814 21.7276 21.614 21.6432 21.614C21.5589 21.614 20.6876 17.3474 19.7319 12.1263C18.72 6.76491 17.7362 2.30175 17.4832 1.85263C17.2303 1.40351 16.5557 0.814034 16.0216 0.533333C15.1503 0.056139 14.3351 0 7.53297 0C0.393514 0 0 0.0280704 0 0.505262Z" fill="#1A1F71"/>
<path d="M42.5866 0.336842C42.5022 0.533333 40.9563 7.74737 39.1293 16.3368L35.8125 32H39.9725C42.2493 32 44.1325 31.9439 44.1325 31.8877C44.1325 31.7193 50.5693 1.48772 50.7941 0.617542L50.9347 0H46.8309C43.7952 0 42.6709 0.0842094 42.5866 0.336842Z" fill="#1A1F71"/>
<path d="M61.415 0.391764C58.1826 1.43036 55.4561 3.56369 54.2475 6.03387C53.7415 7.0444 53.5167 8.02685 53.4604 9.62685C53.348 11.5356 53.4323 11.9847 54.0788 13.3321C54.9783 15.1286 56.6367 16.6725 59.0821 17.9637C64.9848 21.0514 66.081 22.483 64.001 24.5602C62.2302 26.3286 57.9015 26.4409 53.4323 24.8409C52.4204 24.476 51.5491 24.2233 51.4648 24.2795C51.3242 24.4479 50.0594 30.0339 50.0312 30.6233C50.0312 30.9602 50.5372 31.2409 51.8021 31.5777C53.2356 31.9426 54.5848 32.0269 59.4475 31.9426L65.3502 31.8584L67.2334 30.9321C71.1123 29.0514 73.4172 25.6549 73.4453 21.8093C73.4734 18.1602 71.7588 15.8023 67.4302 13.4444C64.001 11.5637 62.5956 10.6093 62.1177 9.73913C61.7523 9.06545 61.7523 8.89703 62.1177 8.19527C63.214 6.23036 67.5707 5.69703 71.5621 7.0444L73.5858 7.74615L74.2323 4.63036C74.5977 2.94615 74.9069 1.43036 74.9069 1.26194C74.9069 1.12159 74.2042 0.784746 73.361 0.504044C71.4215 -0.0854301 63.214 -0.16964 61.415 0.391764Z" fill="#1A1F71"/>
<path d="M87.5568 0.392258C87.107 0.588749 86.5168 1.0098 86.2638 1.2905C85.9827 1.59928 83.1719 8.08348 79.9676 15.7186C76.7632 23.3537 73.9243 30.1466 73.6432 30.7923L73.1092 31.9993H77.4097H81.7384L82.5254 29.6975L83.3405 27.3677L88.7092 27.2835L94.0497 27.2273L94.6119 29.5291L95.1741 31.8589L99.0249 31.9431L102.904 32.0273L102.707 31.2414C102.595 30.8203 101.077 23.6344 99.3622 15.2975L96.2141 0.139626L92.307 0.0834846C89.5243 0.0273457 88.147 0.111555 87.5568 0.392258ZM91.4638 14.7361C92.0541 17.5151 92.56 20.0133 92.6443 20.2659C92.7849 20.7151 92.5038 20.7712 89.4119 20.7712C87.5287 20.7712 86.0108 20.687 86.0108 20.6028C86.0108 19.9852 90.0865 9.2905 90.227 9.45892C90.3676 9.57121 90.9016 11.9572 91.4638 14.7361Z" fill="#1A1F71"/>
</g>
<defs>
<clipPath id="clip0_3218_12335">
<rect width="104" height="32" fill="white"/>
</clipPath>
</defs>
</svg>
