<svg width="126" height="32" viewBox="0 0 126 32" fill="none" xmlns="http://www.w3.org/2000/svg">
<g clip-path="url(#clip0_3218_12373)">
<path d="M-0.003025 0.778353C2.09698 0.778353 4.22638 0.75335 6.33898 0.757517C6.83878 0.757517 7.51078 0.536655 7.79218 0.85753C8.07358 1.1784 7.86358 1.78682 7.86778 2.27438C7.86778 2.83279 7.86778 3.39536 7.86778 4.08295C8.34707 3.36093 8.91101 2.69787 9.54778 2.10769C12.7776 -0.776016 18.309 -0.392633 21.354 2.58692C23.0473 4.2929 24.1328 6.50097 24.4452 8.87524C24.9817 11.7338 24.8073 14.679 23.937 17.4555C22.8156 20.7101 20.6904 22.9729 17.217 23.7522C16.0627 24.0501 14.8605 24.1192 13.6793 23.9554C12.498 23.7917 11.361 23.3983 10.3332 22.7979C9.32799 22.1994 8.50277 21.3447 7.94338 20.3226C7.79638 20.4601 7.86358 20.6143 7.86358 20.7393C7.86358 24.0439 7.86358 27.3443 7.86358 30.6447C7.86358 31.0073 7.78378 31.1073 7.40998 31.1031C5.11258 31.1031 2.81518 31.1031 0.521975 31.1031C0.341375 31.1031 0.164975 31.1031 -0.015625 31.1323L-0.003025 0.778353ZM7.65778 12.0298C7.65503 12.5504 7.68167 13.0707 7.73758 13.5884C7.79893 14.1051 7.91148 14.6146 8.07358 15.1094C8.32765 16.0032 8.88355 16.7832 9.64817 17.3188C10.4128 17.8544 11.3397 18.1131 12.2736 18.0514C14.319 18.0223 15.768 16.9638 16.3308 15.001C16.8998 13.0675 16.8998 11.0129 16.3308 9.07943C16.123 8.19759 15.6162 7.41334 14.8952 6.85802C14.1741 6.3027 13.2827 6.01004 12.3702 6.02904C10.2912 5.97903 8.81698 6.97083 8.11978 8.90858C7.77557 9.91241 7.619 10.9702 7.65778 12.0298Z" fill="#010101"/>
<path d="M37.4057 0C37.7689 0.121507 38.1453 0.199842 38.5271 0.233364C40.3007 0.611589 41.8514 1.67076 42.8405 3.17958C42.9413 3.32543 43.0379 3.47545 43.2227 3.75882V1.62938C43.2227 0.61258 43.2227 0.61258 44.2349 0.61258C46.3685 0.61258 48.5021 0.61258 50.6315 0.61258C51.0011 0.61258 51.0977 0.704258 51.0935 1.07097C51.0935 8.36081 51.0935 15.6479 51.0935 22.9322C51.0935 23.2614 51.0221 23.378 50.6735 23.3739C48.3131 23.3739 45.9513 23.3739 43.5881 23.3739C43.2605 23.3739 43.2227 23.2655 43.2269 22.9822C43.2269 21.9654 43.2269 20.9444 43.2269 19.9359C43.1345 19.8859 43.1093 19.9359 43.0925 19.9818C41.0723 23.5114 37.1285 24.7032 33.2561 23.3822C30.2405 22.3571 28.3799 20.1568 27.5021 17.2147C26.3387 13.2976 26.3639 9.36789 28.0355 5.57573C29.3333 2.65868 31.5677 0.750098 34.8143 0.158354C34.9235 0.158354 35.0915 0.187524 35.1419 0.0125016L37.4057 0ZM34.7471 11.9682C34.6891 13.24 34.9232 14.5082 35.4317 15.677C35.6505 16.1851 35.9833 16.6368 36.4047 16.9979C36.8261 17.359 37.3251 17.6199 37.8635 17.7606C40.0685 18.3357 42.1223 17.3439 42.9035 15.1895C43.6919 12.9961 43.6695 10.5963 42.8405 8.41776C42.2273 6.75088 40.9127 5.91744 39.1319 5.88827C38.322 5.84933 37.5204 6.06531 36.8415 6.50536C36.1627 6.94541 35.6413 7.58702 35.3519 8.33859C34.9 9.49409 34.6941 10.7299 34.7471 11.9682Z" fill="#010101"/>
<path d="M66.733 12.865C67.2664 11.3731 67.7536 10.0188 68.245 8.66446C69.148 6.16413 70.0636 3.6638 70.9582 1.16348C70.966 1.10033 70.9863 1.03934 71.0181 0.984068C71.0498 0.928799 71.0924 0.880358 71.1432 0.841568C71.194 0.802779 71.2521 0.774418 71.3141 0.75814C71.3761 0.741862 71.4407 0.737992 71.5042 0.746757C73.7176 0.746757 75.931 0.767593 78.1444 0.746757C78.5644 0.746757 78.5896 0.855105 78.4468 1.20515C74.4624 11.0398 70.4822 20.8758 66.5062 30.7132C66.4138 30.9382 66.3508 31.1299 66.0064 31.1299C63.646 31.109 61.2814 31.1299 58.8958 31.1299C58.8983 30.8813 58.9648 30.6374 59.089 30.4215C60.209 27.4961 61.3374 24.579 62.4742 21.6703C62.5427 21.5263 62.5782 21.3691 62.5782 21.2098C62.5782 21.0506 62.5427 20.8934 62.4742 20.7494C59.5594 14.2957 56.653 7.84351 53.755 1.39267C53.671 1.20098 53.5954 1.00929 53.5156 0.8176C53.6911 0.746154 53.8834 0.725913 54.07 0.759259C56.5312 0.759259 58.9924 0.759259 61.4536 0.759259C61.6193 0.728131 61.7907 0.761989 61.9317 0.853706C62.0727 0.945423 62.1723 1.08784 62.2096 1.25099C63.688 5.07232 65.1874 8.89782 66.733 12.865Z" fill="#010101"/>
<path d="M88.6426 17.5739H95.4802C96.6436 17.5739 97.8112 17.5739 98.9746 17.5739C99.2686 17.5739 99.3694 17.6364 99.3652 17.9448C99.3652 19.67 99.3652 21.3953 99.3652 23.1205C99.3652 23.3997 99.3148 23.5372 98.9914 23.5372C92.4478 23.5372 85.9014 23.5372 79.3522 23.5372C79.0498 23.5372 79.0078 23.4247 79.0078 23.1663C79.0078 21.5745 79.0078 19.9784 79.0078 18.3865C79.0164 18.2658 79.0503 18.1482 79.1074 18.0412C79.1646 17.9343 79.2437 17.8404 79.3396 17.7656L89.1214 7.00172L89.3566 6.73919C89.239 6.59334 89.0836 6.66835 88.9366 6.66835C86.2318 6.66835 83.5228 6.66835 80.818 6.66835C80.3434 6.66835 80.2678 6.52249 80.2678 6.10161C80.2678 4.47223 80.2678 2.84702 80.2174 1.2218C80.2174 0.846755 80.3182 0.767578 80.6836 0.767578C86.5048 0.767578 92.3288 0.767578 98.1556 0.767578C98.5756 0.767578 98.626 0.91343 98.6218 1.26764C98.6218 2.87619 98.6218 4.4889 98.6218 6.09744C98.6261 6.23244 98.6031 6.36692 98.554 6.49291C98.505 6.6189 98.4309 6.73382 98.3362 6.83087C95.2422 10.2396 92.151 13.6581 89.0626 17.0864C88.9408 17.2281 88.8274 17.3614 88.6426 17.5739Z" fill="#010101"/>
<path d="M114.529 31.9991C120.861 31.9991 125.995 26.9056 125.995 20.6226C125.995 14.3395 120.861 9.24609 114.529 9.24609C108.196 9.24609 103.062 14.3395 103.062 20.6226C103.062 26.9056 108.196 31.9991 114.529 31.9991Z" fill="#DCF915"/>
</g>
<defs>
<clipPath id="clip0_3218_12373">
<rect width="126" height="32" fill="white"/>
</clipPath>
</defs>
</svg>
