<svg width="32" height="32" viewBox="0 0 32 32" fill="none" xmlns="http://www.w3.org/2000/svg">
<g clip-path="url(#clip0_3218_12347)">
<mask id="mask0_3218_12347" style="mask-type:luminance" maskUnits="userSpaceOnUse" x="0" y="0" width="32" height="32">
<path d="M32 0H0V32H32V0Z" fill="white"/>
</mask>
<g mask="url(#mask0_3218_12347)">
<path d="M25.9056 31.4668H6.02259C3.03005 31.4668 0.625 29.0434 0.625 26.0692V5.96595C0.625 2.97341 3.04841 0.568359 6.02259 0.568359H25.9056C28.8981 0.568359 31.3031 2.99177 31.3031 5.96595V26.0692C31.3215 29.0434 28.8981 31.4668 25.9056 31.4668Z" fill="#FDB913"/>
<path d="M17.8125 16.3388V10.8127L19.2445 10.4638V11.1798C19.2445 11.1798 19.6117 10.2252 20.4929 10.0049C20.6214 9.96814 20.7683 9.94978 20.8968 9.96814V11.3818C20.6398 11.3818 20.3828 11.4369 20.1441 11.547C19.6117 11.7673 19.3363 12.2263 19.3363 12.924V15.9716L17.8125 16.3388Z" fill="#231F20"/>
<path d="M10.1918 18.1374C10.1918 18.1374 9.95312 17.7886 9.95312 16.5402V13.7863L9.21875 13.9699V12.8316L9.97147 12.648V11.418L11.5136 11.0508V12.2992L12.5968 12.0422V13.1804L11.5136 13.4375V16.2464C11.5136 17.5316 11.8625 17.7702 11.8625 17.7702L10.1918 18.1374Z" fill="#231F20"/>
<path d="M12.7422 14.8326C12.7422 13.8595 12.8891 13.1252 13.1828 12.5744C13.55 11.9135 14.1191 11.4912 14.982 11.3076C16.671 10.9221 17.2769 11.9318 17.2585 13.2537C17.2402 13.731 17.2585 13.9697 17.2585 13.9697L14.2844 14.6673V14.7224C14.2844 15.6587 14.4863 16.0994 15.0738 15.9708C15.5879 15.8607 15.7347 15.5486 15.7714 15.1447V14.9244L17.1667 14.5939V14.8326C17.1484 15.365 17.0015 16.6869 15.0738 17.1458C13.2195 17.5681 12.7422 16.4482 12.7422 14.8326ZM15.0371 12.3357C14.5414 12.4459 14.2844 12.9232 14.266 13.731L15.7531 13.3822V13.1435C15.7714 12.5377 15.5879 12.2256 15.0371 12.3357Z" fill="#231F20"/>
<path d="M26.0904 11.603C26.0353 9.91391 26.4759 8.5737 28.3486 8.15144C29.5419 7.87605 30.0009 8.18815 30.2395 8.4819C30.4782 8.77565 30.5516 9.16119 30.5516 9.6936V9.7854L29.0829 10.1342V9.93227C29.0829 9.2897 28.8993 9.05103 28.4403 9.16119C27.8896 9.30806 27.6509 9.82212 27.6509 10.8686V11.3643C27.6509 12.4291 27.7978 12.9248 28.4403 12.7779C28.9911 12.6678 29.0646 12.1721 29.0829 11.7498V11.4744L30.5516 11.1256V11.3826C30.5516 12.7779 29.8173 13.6592 28.422 13.9896C26.5126 14.4303 26.1455 13.3287 26.0904 11.603Z" fill="#231F20"/>
<path d="M21 13.9712C21 12.686 21.7527 12.2821 22.891 11.8231C23.9007 11.4009 23.9375 11.1989 23.9375 10.8318C23.9375 10.5196 23.7906 10.2626 23.2949 10.3911C22.9461 10.4646 22.689 10.7583 22.689 11.1255C22.689 11.2173 22.689 11.3091 22.689 11.4009L21.257 11.7314C21.2387 11.456 21.2754 11.1622 21.3488 10.8868C21.5691 10.1157 22.2484 9.60169 23.4234 9.3263C24.9472 8.97748 25.4429 9.63841 25.4429 10.6849V13.1266C25.4429 14.32 25.6632 14.4852 25.6632 14.4852L24.2679 14.8157C24.1945 14.6505 24.1394 14.4852 24.0843 14.32C24.0843 14.32 23.7722 15.0911 22.7258 15.3481C21.6059 15.5868 21 14.9075 21 13.9712ZM23.9191 12.2087C23.6804 12.3739 23.4418 12.5208 23.1664 12.6493C22.7074 12.8696 22.4871 13.1634 22.4871 13.5856C22.4871 13.9528 22.7258 14.2098 23.148 14.0997C23.607 13.9895 23.9191 13.5673 23.9191 12.9798V12.2087Z" fill="#231F20"/>
<path d="M2.1703 22.0121C1.6746 22.0121 1.28906 21.6082 1.28906 21.1125C1.28906 20.9473 1.34414 20.782 1.43594 20.6352V20.6168H1.45429L3.54724 20.1211V21.7183H3.49216C3.01482 21.8285 2.44569 21.957 2.33553 21.9937C2.28046 21.9937 2.20702 22.0121 2.1703 22.0121Z" fill="#231F20"/>
<path d="M2.1703 24.0316C1.6746 24.0316 1.28906 23.6277 1.28906 23.132C1.28906 22.9668 1.34414 22.8016 1.43594 22.6547V22.6363H1.45429L3.54724 22.1406V23.7195H3.49216C3.01482 23.8297 2.44569 23.9582 2.33553 23.9949C2.28046 24.0316 2.20702 24.0316 2.1703 24.0316Z" fill="#231F20"/>
<path d="M2.1703 26.0699C1.6746 26.0699 1.28906 25.666 1.28906 25.1887C1.28906 25.0234 1.34414 24.8582 1.43594 24.7113V24.693L3.54724 24.1973V25.7762H3.49216C2.99646 25.9047 2.42733 26.0148 2.33553 26.0515C2.28046 26.0515 2.20702 26.0699 2.1703 26.0699Z" fill="#231F20"/>
<path d="M1.90625 20.0655V11.198L3.52186 10.8125V19.68L1.90625 20.0655Z" fill="#231F20"/>
<path d="M5.94646 19.3127C5.96482 18.7619 5.54256 18.3029 4.99178 18.2662C4.44101 18.2478 3.98203 18.6701 3.94531 19.2209C3.94531 19.2576 3.94531 19.276 3.94531 19.3127V27.611C3.94531 29.0981 5.15702 30.3098 6.64411 30.3098H9.47142V22.9845C9.47142 22.5439 9.25111 22.14 8.88392 21.9013L6.36872 20.1939V24.0861C6.36872 24.1962 6.27692 24.3064 6.14841 24.3064C6.03826 24.3064 5.9281 24.2146 5.9281 24.0861L5.94646 19.3127Z" fill="#231F20"/>
<path d="M7.29137 13.1262C6.66716 13.2731 6.1531 13.677 5.841 14.2462V13.6219L4.39062 13.9524V17.9363C4.90468 17.7344 5.51053 17.8262 5.93279 18.2117V15.6414C5.93279 15.0356 6.2449 14.5399 6.68552 14.4297C7.01598 14.3563 7.29137 14.4848 7.29137 15.054V18.8176L8.83354 18.4504V14.4848C8.81518 13.5301 8.448 12.8509 7.29137 13.1262Z" fill="#231F20"/>
</g>
</g>
<defs>
<clipPath id="clip0_3218_12347">
<rect width="32" height="32" fill="white"/>
</clipPath>
</defs>
</svg>
