<svg width="118" height="32" viewBox="0 0 118 32" fill="none" xmlns="http://www.w3.org/2000/svg">
<g clip-path="url(#clip0_3218_12382)">
<path d="M29.1212 31.3093V0.689453H30.6862V31.3093H29.1212ZM45.64 4.68229V4.53531H51.9246V19.8452C51.9246 24.083 48.3973 27.5124 44.0503 27.5124C39.7032 27.5124 36.1758 24.083 36.1758 19.8452H42.4853C42.4853 20.7027 43.1808 21.3885 44.0503 21.3885C44.9197 21.3885 45.6153 20.7027 45.6153 19.8452V4.68229H45.64ZM68.3441 12.7414C69.0396 13.4763 69.5861 14.3582 69.9339 15.387C70.2817 16.3914 70.4804 17.5427 70.4804 18.792C70.4804 19.0859 70.4804 19.3553 70.4556 19.6003C70.4307 19.9188 70.3811 20.0657 70.3314 20.1882L70.1575 20.5312H59.2774C59.327 20.7761 59.4016 20.9966 59.5258 21.217C59.7245 21.609 59.9729 21.9764 60.2958 22.2704C60.6188 22.5643 60.9914 22.7847 61.4137 22.9562C61.836 23.1277 62.2831 23.2011 62.7551 23.2011C63.6989 23.2011 64.4442 23.0052 64.9161 22.5888L65.1646 22.3683L69.7849 23.6176L69.288 24.328C68.8409 24.9649 68.3193 25.5038 67.6734 25.9693C67.0275 26.4346 66.3072 26.802 65.4875 27.0715C64.6677 27.3409 63.7486 27.4635 62.7798 27.4635C61.6621 27.4635 60.5691 27.2675 59.5506 26.8756C58.5321 26.4836 57.6131 25.9203 56.8431 25.1853C56.073 24.4504 55.452 23.5441 54.98 22.4663C54.508 21.4129 54.2844 20.1882 54.2844 18.8408C54.2844 17.5917 54.508 16.4158 54.9551 15.387C55.4023 14.3582 55.9985 13.4763 56.7437 12.7169C57.4889 11.9821 58.3582 11.3942 59.327 11.0022C60.2958 10.5858 61.3392 10.3898 62.3825 10.3898C63.6244 10.3898 64.7671 10.5858 65.7856 10.9777C66.7792 11.4187 67.6485 12.0066 68.3441 12.7414ZM59.4264 16.7098H65.4626C65.4378 16.5627 65.3881 16.4403 65.3384 16.2933C65.2142 15.9749 65.0155 15.7054 64.7671 15.4605C64.5187 15.2155 64.1958 15.0196 63.7983 14.8481C63.4257 14.7011 62.9537 14.6276 62.4073 14.6276C61.9353 14.6276 61.513 14.7011 61.1404 14.8725C60.7678 15.044 60.4449 15.24 60.1965 15.5095C59.9232 15.7789 59.7245 16.0728 59.5506 16.4158C59.5009 16.4893 59.4512 16.6117 59.4264 16.7098ZM98.4009 12.8639C99.171 13.6233 99.7672 14.5296 100.214 15.5585C100.637 16.5873 100.86 17.7141 100.86 18.9389C100.86 20.1637 100.637 21.2904 100.214 22.3438C99.792 23.3972 99.171 24.3035 98.4009 25.0628C97.6308 25.8222 96.7118 26.4346 95.6934 26.851C94.65 27.2675 93.5075 27.488 92.2654 27.488C91.0482 27.488 89.9055 27.2675 88.8623 26.851C87.819 26.4346 86.8999 25.8222 86.1298 25.0628C85.3847 24.3035 84.7635 23.3972 84.3412 22.3438C83.9191 21.315 83.6955 20.1637 83.6955 18.9389C83.6955 17.7141 83.9191 16.5873 84.3412 15.5585C84.7635 14.5296 85.3597 13.6233 86.1298 12.8639C86.8999 12.1045 87.7941 11.4921 88.8623 11.0757C89.9055 10.6593 91.0482 10.4388 92.2654 10.4388C93.5075 10.4388 94.65 10.6593 95.6934 11.0757C96.7118 11.4921 97.6308 12.1045 98.4009 12.8639ZM95.6188 20.7761C95.8176 20.2616 95.9169 19.6493 95.9169 18.9389C95.9169 18.2531 95.8176 17.6405 95.6188 17.1262C95.4201 16.6363 95.1469 16.1953 94.7991 15.8525C94.4763 15.5095 94.0787 15.2645 93.6565 15.1175C93.2094 14.946 92.7374 14.8725 92.2654 14.8725C91.7686 14.8725 91.3214 14.946 90.8743 15.1175C90.452 15.289 90.0794 15.5339 89.7566 15.8525C89.4335 16.1953 89.1604 16.6117 88.9368 17.1262C88.7381 17.6405 88.6139 18.2285 88.6139 18.9389C88.6139 19.6248 88.7133 20.2372 88.9368 20.7761C89.1354 21.2904 89.4087 21.7315 89.7566 22.0744C90.0794 22.4173 90.452 22.6622 90.8992 22.8337C91.3463 23.0052 91.7934 23.1032 92.2902 23.1032C92.7622 23.1032 93.2342 23.0052 93.6812 22.8337C94.1035 22.6622 94.501 22.4173 94.8239 22.0744C95.1469 21.7069 95.4201 21.2904 95.6188 20.7761ZM117.627 14.5051C117.876 15.289 118 16.1219 118 16.9792V27.0225H113.082V17.5917C113.082 16.8078 112.883 16.1463 112.485 15.6074C112.138 15.1421 111.517 14.8971 110.548 14.8971C109.703 14.8971 109.082 15.1421 108.685 15.681C108.238 16.2689 108.014 16.9547 108.014 17.812V27.0225H103.096V10.8797H107.915V11.7616C108.238 11.4921 108.61 11.2472 109.008 11.0757C109.927 10.6593 110.871 10.4633 111.815 10.4633C112.833 10.4633 113.752 10.6348 114.522 10.9777C115.292 11.3207 115.963 11.8106 116.46 12.423C116.982 13.0109 117.379 13.7213 117.627 14.5051ZM80.6649 22.7847C80.9878 22.7358 81.0623 22.7358 81.0872 22.7112L81.8821 22.5153V26.6551L81.4846 26.802C81.3853 26.8266 81.2362 26.9 80.7147 27.0225C80.2924 27.1205 79.7459 27.1696 79.0007 27.1696C77.4108 27.1696 76.1191 26.7285 75.2001 25.8222C74.281 24.9893 73.7842 23.7156 73.7842 22.1479V15.2645H71.8962V10.8797H73.7842V6.32351H78.6529V10.8797H81.8324V15.2645H78.6529V21.56C78.6529 22.0254 78.7522 22.3683 78.9261 22.5397C79.1249 22.7112 79.4726 22.8093 79.9693 22.8093C80.2179 22.8337 80.4413 22.8093 80.6649 22.7847ZM1.6229 10.7328C1.4987 10.7573 1.3745 10.6348 1.44902 10.5123C2.93944 7.84226 5.498 5.76011 8.75209 4.92725C12.0062 4.06988 15.2851 4.63328 17.9431 6.22552C18.0673 6.29902 18.0423 6.47048 17.8934 6.49499L1.6229 10.7328ZM21.5946 9.58146C22.315 10.6103 22.8615 11.7616 23.2091 13.0109C23.5569 14.2602 23.6811 15.5339 23.5819 16.7588C23.5819 16.8323 23.5322 16.8813 23.4575 16.9057L2.19424 22.4663C2.11971 22.4907 2.07003 22.4663 2.02035 22.3928C1.32482 21.364 0.75349 20.2126 0.405725 18.9635C0.0579608 17.7141 -0.066241 16.4403 0.0331205 15.2155C0.0331205 15.1421 0.0828012 15.0931 0.157322 15.0685L21.4207 9.53247C21.4952 9.50798 21.5697 9.53247 21.5946 9.58146ZM21.992 21.266C22.1161 21.2416 22.2403 21.364 22.1659 21.4865C20.6755 24.1565 18.1168 26.2387 14.8628 27.0715C11.6087 27.9288 8.3298 27.3655 5.67188 25.7732C5.54768 25.6997 5.57252 25.5283 5.72157 25.5038L21.992 21.266Z" fill="#FF6300"/>
</g>
<defs>
<clipPath id="clip0_3218_12382">
<rect width="118" height="32" fill="white"/>
</clipPath>
</defs>
</svg>
