<svg width="40" height="32" viewBox="0 0 40 32" fill="none" xmlns="http://www.w3.org/2000/svg">
<g clip-path="url(#clip0_3218_12341)">
<path d="M39.186 31.1726V31.2538H39.2607C39.2772 31.2538 39.2914 31.2498 39.3016 31.2435C39.311 31.2372 39.3165 31.2262 39.3165 31.2128C39.3165 31.1994 39.311 31.1892 39.3016 31.1829C39.2914 31.1758 39.2772 31.1726 39.2607 31.1726H39.186ZM39.2615 31.1159C39.3 31.1159 39.3299 31.1245 39.3511 31.1419C39.3723 31.1592 39.3826 31.1829 39.3826 31.2128C39.3826 31.238 39.3747 31.2585 39.3574 31.275C39.3409 31.2908 39.3173 31.301 39.2859 31.305L39.3849 31.4192H39.3079L39.2159 31.3058H39.186V31.4192H39.1216V31.1159H39.2615ZM39.2418 31.524C39.2772 31.524 39.3102 31.5169 39.3401 31.5035C39.3708 31.4901 39.3975 31.472 39.4203 31.4492C39.4431 31.4263 39.4612 31.3995 39.4745 31.368C39.4871 31.3373 39.4942 31.3042 39.4942 31.2687C39.4942 31.2333 39.4871 31.2002 39.4745 31.1695C39.4612 31.1387 39.4431 31.1111 39.4203 31.0883C39.3975 31.0654 39.3708 31.0473 39.3401 31.0339C39.3102 31.0213 39.2772 31.015 39.2418 31.015C39.2065 31.015 39.1727 31.0213 39.142 31.0339C39.1105 31.0473 39.083 31.0654 39.0602 31.0883C39.0374 31.1111 39.0193 31.1387 39.0068 31.1695C38.9934 31.2002 38.9871 31.2333 38.9871 31.2687C38.9871 31.3042 38.9934 31.3373 39.0068 31.368C39.0193 31.3995 39.0374 31.4263 39.0602 31.4492C39.083 31.472 39.1105 31.4901 39.142 31.5035C39.1727 31.5169 39.2065 31.524 39.2418 31.524ZM39.2418 30.9417C39.2882 30.9417 39.3307 30.9504 39.3716 30.9677C39.4116 30.9843 39.4462 31.0079 39.4769 31.0379C39.5068 31.067 39.5304 31.1017 39.5477 31.1419C39.5649 31.1813 39.5736 31.2238 39.5736 31.2687C39.5736 31.3137 39.5649 31.3562 39.5477 31.3956C39.5304 31.435 39.5068 31.4697 39.4769 31.4996C39.4462 31.5288 39.4116 31.5524 39.3716 31.5697C39.3307 31.5871 39.2882 31.5957 39.2418 31.5957C39.1947 31.5957 39.1514 31.5871 39.1105 31.5697C39.0697 31.5524 39.0343 31.5288 39.0044 31.4996C38.9745 31.4697 38.951 31.435 38.9337 31.3956C38.9164 31.3562 38.9077 31.3137 38.9077 31.2687C38.9077 31.2238 38.9164 31.1813 38.9337 31.1419C38.951 31.1017 38.9745 31.067 39.0044 31.0379C39.0343 31.0079 39.0697 30.9843 39.1105 30.9677C39.1514 30.9504 39.1947 30.9417 39.2418 30.9417ZM8.61218 29.7732C8.61218 29.1949 8.99033 28.7197 9.60823 28.7197C10.1986 28.7197 10.5972 29.1744 10.5972 29.7732C10.5972 30.3721 10.1986 30.8267 9.60823 30.8267C8.99033 30.8267 8.61218 30.3516 8.61218 29.7732ZM11.2702 29.7732V28.128H10.5563V28.5275C10.3299 28.2312 9.98638 28.0453 9.51938 28.0453C8.59878 28.0453 7.87708 28.7686 7.87708 29.7732C7.87708 30.7786 8.59878 31.5012 9.51938 31.5012C9.98638 31.5012 10.3299 31.3152 10.5563 31.019V31.4184H11.2702V29.7732ZM35.3928 29.7732C35.3928 29.1949 35.7709 28.7197 36.3889 28.7197C36.98 28.7197 37.3778 29.1744 37.3778 29.7732C37.3778 30.3721 36.98 30.8267 36.3889 30.8267C35.7709 30.8267 35.3928 30.3516 35.3928 29.7732ZM38.0516 29.7732V26.8066H37.337V28.5275C37.1105 28.2312 36.767 28.0453 36.3 28.0453C35.3794 28.0453 34.6577 28.7686 34.6577 29.7732C34.6577 30.7786 35.3794 31.5012 36.3 31.5012C36.767 31.5012 37.1105 31.3152 37.337 31.019V31.4184H38.0516V29.7732ZM20.131 28.6859C20.5909 28.6859 20.8865 28.975 20.962 29.4841H19.2584C19.3346 29.0089 19.6224 28.6859 20.131 28.6859ZM20.1452 28.0453C19.1829 28.0453 18.5099 28.7473 18.5099 29.7732C18.5099 30.8196 19.2104 31.5012 20.1931 31.5012C20.6876 31.5012 21.1404 31.3775 21.539 31.0402L21.1892 30.5099C20.914 30.7298 20.5634 30.8543 20.234 30.8543C19.7741 30.8543 19.3551 30.6407 19.2521 30.0482H21.69C21.697 29.9592 21.7041 29.8694 21.7041 29.7732C21.697 28.7473 21.065 28.0453 20.1452 28.0453ZM28.7646 29.7732C28.7646 29.1949 29.1428 28.7197 29.7607 28.7197C30.3511 28.7197 30.7497 29.1744 30.7497 29.7732C30.7497 30.3721 30.3511 30.8267 29.7607 30.8267C29.1428 30.8267 28.7646 30.3516 28.7646 29.7732ZM31.4227 29.7732V28.128H30.7088V28.5275C30.4816 28.2312 30.1389 28.0453 29.6719 28.0453C28.7513 28.0453 28.0296 28.7686 28.0296 29.7732C28.0296 30.7786 28.7513 31.5012 29.6719 31.5012C30.1389 31.5012 30.4816 31.3152 30.7088 31.019V31.4184H31.4227V29.7732ZM24.7332 29.7732C24.7332 30.7715 25.4266 31.5012 26.4848 31.5012C26.9793 31.5012 27.3087 31.3909 27.6656 31.1088L27.3228 30.5304C27.0547 30.7235 26.7733 30.8267 26.4635 30.8267C25.8936 30.8196 25.4746 30.4067 25.4746 29.7732C25.4746 29.1397 25.8936 28.7268 26.4635 28.7197C26.7733 28.7197 27.0547 28.823 27.3228 29.016L27.6656 28.4377C27.3087 28.1556 26.9793 28.0453 26.4848 28.0453C25.4266 28.0453 24.7332 28.7749 24.7332 29.7732ZM33.9368 28.0453C33.5249 28.0453 33.2568 28.2383 33.0712 28.5275V28.128H32.3637V31.4184H33.0783V29.5739C33.0783 29.0294 33.3118 28.7268 33.7788 28.7268C33.9234 28.7268 34.0744 28.7473 34.2253 28.8096L34.4455 28.1351C34.2874 28.0728 34.0815 28.0453 33.9368 28.0453ZM14.8008 28.3896C14.4573 28.1627 13.984 28.0453 13.462 28.0453C12.6302 28.0453 12.0949 28.4448 12.0949 29.0987C12.0949 29.6353 12.4934 29.9663 13.2277 30.0695L13.565 30.1176C13.9565 30.1727 14.1412 30.2759 14.1412 30.4619C14.1412 30.7164 13.8802 30.8614 13.3928 30.8614C12.8983 30.8614 12.5414 30.703 12.3008 30.517L11.9644 31.0741C12.3559 31.3633 12.8504 31.5012 13.3857 31.5012C14.3338 31.5012 14.8834 31.0536 14.8834 30.4272C14.8834 29.8489 14.451 29.5463 13.7364 29.4431L13.3999 29.3942C13.0909 29.3533 12.8433 29.2918 12.8433 29.0712C12.8433 28.8301 13.0768 28.6859 13.4683 28.6859C13.8873 28.6859 14.293 28.8442 14.4919 28.9679L14.8008 28.3896ZM24.0115 28.0453C23.5996 28.0453 23.3315 28.2383 23.1467 28.5275V28.128H22.4392V31.4184H23.153V29.5739C23.153 29.0294 23.3865 28.7268 23.8535 28.7268C23.9981 28.7268 24.1491 28.7473 24.3 28.8096L24.5202 28.1351C24.3621 28.0728 24.1562 28.0453 24.0115 28.0453ZM17.9195 28.128H16.7521V27.1297H16.0304V28.128H15.3645V28.782H16.0304V30.283C16.0304 31.0465 16.326 31.5012 17.1703 31.5012C17.4801 31.5012 17.837 31.4051 18.0634 31.2467L17.8574 30.6337C17.6444 30.7574 17.4109 30.8196 17.2254 30.8196C16.8684 30.8196 16.7521 30.599 16.7521 30.2688V28.782H17.9195V28.128ZM7.24583 31.4184V29.3533C7.24583 28.5756 6.75133 28.0524 5.95413 28.0453C5.53513 28.0382 5.10273 28.169 4.80007 28.6307C4.57365 28.2659 4.21673 28.0453 3.71516 28.0453C3.36453 28.0453 3.02177 28.1485 2.75369 28.5338V28.128H2.03906V31.4184H2.75997V29.5944C2.75997 29.0231 3.07601 28.7197 3.56422 28.7197C4.03827 28.7197 4.27805 29.0294 4.27805 29.5873V31.4184H4.99975V29.5944C4.99975 29.0231 5.32913 28.7197 5.80323 28.7197C6.29063 28.7197 6.52413 29.0294 6.52413 29.5873V31.4184H7.24583Z" fill="#231F20"/>
<path d="M39.6198 20.4748V19.9941H39.4948L39.3501 20.3243L39.2063 19.9941H39.0805V20.4748H39.1693V20.1123L39.3045 20.4251H39.3965L39.5317 20.1115V20.4748H39.6198ZM38.8266 20.4748V20.0761H38.9869V19.9949H38.5781V20.0761H38.7385V20.4748H38.8266Z" fill="#F79410"/>
<path d="M25.4126 22.544H14.5938V3.05664H25.4126V22.544Z" fill="#FF5F00"/>
<path d="M15.283 12.7979C15.283 8.84472 17.1297 5.32341 20.0055 3.05414C17.9025 1.39474 15.2484 0.404297 12.364 0.404297C5.53535 0.404297 0 5.95296 0 12.7979C0 19.6427 5.53535 25.1914 12.364 25.1914C15.2484 25.1914 17.9025 24.201 20.0055 22.5415C17.1297 20.2723 15.283 16.751 15.283 12.7979Z" fill="#EB001B"/>
<path d="M39.9985 12.7979C39.9985 19.6427 34.4631 25.1914 27.6345 25.1914C24.75 25.1914 22.096 24.201 19.9922 22.5415C22.8688 20.2723 24.7155 16.751 24.7155 12.7979C24.7155 8.84472 22.8688 5.32341 19.9922 3.05414C22.096 1.39474 24.75 0.404297 27.6345 0.404297C34.4631 0.404297 39.9985 5.95296 39.9985 12.7979Z" fill="#F79E1B"/>
</g>
<defs>
<clipPath id="clip0_3218_12341">
<rect width="40" height="32" fill="white"/>
</clipPath>
</defs>
</svg>
