<svg width="180" height="32" viewBox="0 0 180 32" fill="none" xmlns="http://www.w3.org/2000/svg">
<g clip-path="url(#clip0_3218_12371)">
<path d="M176.711 2.56158C174.418 0.960308 170.946 0.152729 166.395 0.152729H154.478L150.048 24.6613H134.435L135.439 19.1008H144.843L145.958 12.8555L136.559 12.8693L137.565 7.33365H147.252L148.541 0.15416H128.869L124.663 23.4021H117.443L121.678 0.152937H111.394L107.188 23.401H100.156L104.394 0.152937H94.1159L89.68 24.6615H73.9559L74.9498 19.101H84.3921L85.5079 12.8912L76.0745 12.8816L77.0753 7.33489H86.8712L88.1518 0.152344H26.8495L23.3602 19.5736L16.4116 0.152344H5.74234L0 31.8478H10.1893L13.665 11.8909L20.4078 31.8478H56.9252L61.3652 7.33185H67.0763L62.6364 31.8478H158.721L161.507 16.3724L166.013 31.8478H176.208L171.538 19.2025L172.606 18.9682C174.96 18.4542 176.795 17.3504 178.073 15.6953C179.35 14.0252 180 11.8809 180 9.30515C180 6.3065 178.923 4.10026 176.708 2.55976L176.711 2.56158ZM48.0584 24.6613H32.4614L33.4688 19.1008H43.252L44.361 12.8378H34.6721L35.6051 7.33523H51.1796L48.0555 24.6613H48.0584ZM168.311 13.9853C167.286 14.7157 165.8 15.0712 163.767 15.0712H161.752L163.298 6.56561H164.78C166.468 6.56561 167.698 6.84122 168.548 7.40346C169.21 7.84444 169.999 8.71676 169.999 10.3663C169.997 12.3617 169.079 13.4338 168.308 13.9851L168.311 13.9853Z" fill="#83BA3B"/>
</g>
<defs>
<clipPath id="clip0_3218_12371">
<rect width="180" height="32" fill="white"/>
</clipPath>
</defs>
</svg>
