<svg width="32" height="32" viewBox="0 0 32 32" fill="none" xmlns="http://www.w3.org/2000/svg">
<g clip-path="url(#clip0_3218_12386)">
<path d="M31.5211 19.8705C29.384 28.442 20.7014 33.6584 12.1279 31.521C3.55805 29.3841 -1.65899 20.702 0.479108 12.1312C2.61532 3.5587 11.2979 -1.65814 19.8687 0.478775C28.4416 2.61569 33.6583 11.2987 31.5209 19.8706L31.521 19.8705H31.5211Z" fill="#F7931A"/>
<path d="M23.0589 13.7204C23.3774 11.5912 21.7562 10.4466 19.5392 9.68311L20.2584 6.79886L18.5025 6.36137L17.8024 9.16969C17.3408 9.05457 16.8667 8.94609 16.3955 8.83856L17.1007 6.01171L15.3459 5.57422L14.6263 8.45754C14.2443 8.37057 13.8691 8.28462 13.5051 8.19406L13.5071 8.18499L11.0856 7.58037L10.6185 9.45561C10.6185 9.45561 11.9213 9.7542 11.8938 9.77258C12.6049 9.95003 12.7335 10.4207 12.7121 10.7937L11.8929 14.0796C11.9419 14.092 12.0054 14.11 12.0755 14.1381C12.0169 14.1236 11.9545 14.1077 11.8898 14.0922L10.7416 18.6952C10.6547 18.9112 10.4341 19.2354 9.93697 19.1123C9.95457 19.1378 8.66073 18.7939 8.66073 18.7939L7.78894 20.8036L10.074 21.3732C10.4991 21.4798 10.9157 21.5913 11.3259 21.6962L10.5993 24.6135L12.3532 25.051L13.0728 22.1646C13.5519 22.2947 14.0169 22.4147 14.4721 22.5278L13.755 25.4005L15.511 25.838L16.2375 22.9261C19.2318 23.4927 21.4832 23.2643 22.4309 20.5563C23.1945 18.3761 22.3928 17.1185 20.8176 16.2984C21.9649 16.0339 22.8291 15.2793 23.0595 13.7207L23.059 13.7203L23.0589 13.7204ZM19.047 19.3455C18.5044 21.5258 14.8331 20.3472 13.6428 20.0517L14.607 16.1867C15.7973 16.4838 19.6142 17.0718 19.0471 19.3455H19.047ZM19.5901 13.6889C19.095 15.672 16.0394 14.6645 15.0482 14.4174L15.9224 10.9121C16.9136 11.1592 20.1057 11.6203 19.5902 13.6889H19.5901Z" fill="white"/>
</g>
<defs>
<clipPath id="clip0_3218_12386">
<rect width="32" height="32" fill="white"/>
</clipPath>
</defs>
</svg>
