<svg width="92" height="32" viewBox="0 0 92 32" fill="none" xmlns="http://www.w3.org/2000/svg">
<g clip-path="url(#clip0_3218_12369)">
<path fill-rule="evenodd" clip-rule="evenodd" d="M66.0838 7.86849C68.1696 7.86849 69.8601 6.1852 69.8601 4.10949C69.8601 2.03256 68.1696 0.347656 66.0838 0.347656C64.0006 0.347656 62.3109 2.03256 62.3109 4.10949C62.3109 6.1852 64.0006 7.86849 66.0838 7.86849ZM37.1632 9.89854C36.9927 10.3249 35.7664 13.7759 32.8003 17.3527V2.05924L24.8974 3.61521V31.3363H32.8003V22.7675C35.0893 26.1874 36.2195 31.3363 36.2195 31.3363H45.6856C44.7493 27.4584 40.6533 20.3083 40.6533 20.3083C44.3294 15.6653 45.944 10.7181 46.2008 9.89854H37.1632ZM57.9395 9.60917C50.861 9.83549 47.2678 12.9991 47.2678 19.2882V31.3363H54.9901V21.5114C54.9901 17.7455 55.4851 16.1314 59.9709 15.9773V9.7195C59.2159 9.55985 57.9395 9.60917 57.9395 9.60917ZM11.6434 12.9511C10.6754 12.8876 8.43438 12.7434 8.43438 10.7335C8.43438 8.30821 11.6609 8.30821 12.871 8.30821C14.9989 8.30821 17.7547 8.93464 19.7228 9.52106C19.7228 9.52106 20.8206 9.90662 21.7549 10.3015L21.8417 10.3249V3.68271L21.7225 3.64754C19.3999 2.83804 16.6992 2.05924 11.692 2.05924C3.05893 2.05924 0 7.06949 0 11.3616C0 13.8358 1.06454 19.6588 10.9517 20.3304C11.7899 20.3818 14.0142 20.5095 14.0142 22.5864C14.0142 24.3012 12.1931 25.3124 9.13014 25.3124C5.77343 25.3124 2.51733 24.4597 0.539573 23.651V30.492C3.50032 31.2652 6.83797 31.6515 10.7497 31.6515C19.191 31.6515 22.9716 26.9112 22.9716 22.213C22.9716 16.8859 18.741 13.4247 11.6434 12.9511ZM62.2557 31.3363H69.9156V9.92279H62.2557V31.3363ZM84.3389 3.42445V31.3363H92V2.05924L84.3389 3.42445ZM73.1604 3.42445L80.8142 2.05924V31.3363H73.1604V3.42445Z" fill="url(#paint0_linear_3218_12369)"/>
</g>
<defs>
<linearGradient id="paint0_linear_3218_12369" x1="24.8805" y1="0.347656" x2="31.7425" y2="38.9682" gradientUnits="userSpaceOnUse">
<stop stop-color="#6B195F"/>
<stop offset="1" stop-color="#4C255B"/>
</linearGradient>
<clipPath id="clip0_3218_12369">
<rect width="92" height="32" fill="white"/>
</clipPath>
</defs>
</svg>
