<svg width="169" height="48" viewBox="0 0 169 48" fill="none" xmlns="http://www.w3.org/2000/svg">
<path d="M60.0363 9.67998C59.435 9.67998 58.8913 9.54569 58.4053 9.27705C57.9275 9.00025 57.5443 8.62984 57.256 8.16579C56.9759 7.69361 56.8359 7.16851 56.8359 6.5905C56.8359 6.01248 56.9759 5.49553 57.256 5.03963C57.5361 4.57559 57.9192 4.20925 58.4053 3.94059C58.8913 3.66379 59.4309 3.52539 60.024 3.52539C60.6336 3.52539 61.1773 3.66379 61.6551 3.94059C62.1412 4.20925 62.5242 4.57559 62.8043 5.03963C63.0844 5.49553 63.2245 6.01248 63.2245 6.5905C63.2245 7.16851 63.0844 7.69361 62.8043 8.16579C62.5242 8.62984 62.1412 9.00025 61.6551 9.27705C61.1773 9.54569 60.6378 9.67998 60.0363 9.67998ZM60.024 8.19021C60.3288 8.19021 60.5965 8.12509 60.8272 7.99482C61.0661 7.85643 61.2474 7.66918 61.3709 7.4331C61.5028 7.18887 61.5686 6.91207 61.5686 6.60271C61.5686 6.29335 61.5028 6.02062 61.3709 5.78453C61.2391 5.54845 61.0579 5.36527 60.8272 5.23502C60.5965 5.09661 60.3288 5.02742 60.024 5.02742C59.7275 5.02742 59.4638 5.09661 59.2331 5.23502C59.0025 5.36527 58.8212 5.54845 58.6894 5.78453C58.5576 6.02062 58.4917 6.29335 58.4917 6.60271C58.4917 6.91207 58.5576 7.18887 58.6894 7.4331C58.8212 7.66918 59.0025 7.85643 59.2331 7.99482C59.4638 8.12509 59.7275 8.19021 60.024 8.19021Z" fill="black"/>
<path fill-rule="evenodd" clip-rule="evenodd" d="M70.1015 9.55851H68.4952V9.02268C68.3388 9.17554 68.1575 9.3053 67.9515 9.41196C67.6054 9.59106 67.2183 9.68058 66.79 9.68058C66.238 9.68058 65.7437 9.54629 65.3071 9.27763C64.8705 9.00898 64.5245 8.64263 64.2691 8.17859C64.022 7.71455 63.8984 7.19352 63.8984 6.61551C63.8984 6.02936 64.022 5.50426 64.2691 5.04022C64.5245 4.57618 64.8664 4.20983 65.2948 3.94118C65.7314 3.67252 66.2298 3.5382 66.79 3.5382C67.2183 3.5382 67.6014 3.62368 67.9391 3.79464C68.1452 3.89645 68.3264 4.02282 68.4828 4.17371V2.93175C68.4828 2.04825 69.2075 1.33203 70.1015 1.33203C70.1015 4.27502 70.1015 6.61553 70.1015 9.55851ZM67.8526 8.00763C67.6302 8.13788 67.3666 8.20302 67.0618 8.20302C66.7735 8.20302 66.5139 8.13788 66.2833 8.00763C66.0526 7.86923 65.8714 7.68199 65.7396 7.4459C65.616 7.20166 65.5542 6.92081 65.5542 6.6033C65.5542 6.29395 65.616 6.02122 65.7396 5.78513C65.8714 5.54903 66.0485 5.36179 66.2709 5.22339C66.5016 5.085 66.7693 5.01579 67.0741 5.01579C67.3707 5.01579 67.6302 5.085 67.8526 5.22339C68.0833 5.35365 68.2604 5.54089 68.3839 5.78513C68.5157 6.02122 68.5817 6.29395 68.5817 6.6033C68.5817 6.92081 68.5157 7.20166 68.3839 7.4459C68.2604 7.68199 68.0833 7.86923 67.8526 8.00763Z" fill="black"/>
<path fill-rule="evenodd" clip-rule="evenodd" d="M72.5604 9.2785C72.997 9.54716 73.4872 9.68153 74.0309 9.68153C74.4593 9.68153 74.8423 9.596 75.18 9.42504C75.4046 9.30598 75.5982 9.15995 75.7608 8.98693V9.55936H77.3672V3.66116H75.7608V4.22818C75.5982 4.05338 75.4046 3.90915 75.18 3.79551C74.8423 3.62455 74.4593 3.53906 74.0309 3.53906C73.4872 3.53906 72.997 3.6734 72.5604 3.94205C72.1238 4.2107 71.7819 4.57705 71.5348 5.04109C71.2876 5.50512 71.1641 6.03022 71.1641 6.61638C71.1641 7.1944 71.2876 7.71542 71.5348 8.17946C71.7819 8.6435 72.1238 9.00984 72.5604 9.2785ZM75.4272 7.76427C75.1471 8.05735 74.7805 8.20388 74.3275 8.20388C74.0309 8.20388 73.7673 8.13876 73.5366 8.0085C73.3142 7.8701 73.1371 7.68285 73.0053 7.44677C72.8817 7.20254 72.8199 6.92167 72.8199 6.60417C72.8199 6.29481 72.8817 6.02208 73.0053 5.78599C73.1371 5.54177 73.3142 5.35452 73.5366 5.22427C73.7673 5.08586 74.0309 5.01667 74.3275 5.01667C74.6323 5.01667 74.8959 5.08586 75.1182 5.22427C75.3489 5.35452 75.5261 5.54177 75.6497 5.78599C75.7815 6.02208 75.8473 6.29481 75.8473 6.60417C75.8473 7.07635 75.7073 7.46305 75.4272 7.76427Z" fill="black"/>
<path d="M54.3129 7.95965C54.3129 8.84315 55.0377 9.55937 55.9317 9.55937V5.82262C55.9317 5.42372 55.8329 5.0533 55.6351 4.71138C55.4374 4.36131 55.1656 4.08044 54.8196 3.86877C54.4736 3.64897 54.0823 3.53906 53.6457 3.53906C53.1926 3.53906 52.7848 3.63676 52.4224 3.83214C52.2321 3.93711 52.0631 4.0644 51.9156 4.21401V3.66119H50.2969V7.95966C50.2969 8.84316 51.0216 9.55938 51.9156 9.55938V6.17672C51.9156 5.94063 51.9651 5.73308 52.064 5.55398C52.171 5.37487 52.3152 5.23648 52.4964 5.13878C52.6777 5.04109 52.8837 4.99224 53.1143 4.99224C53.4685 4.99224 53.7569 5.10214 53.9793 5.32196C54.2017 5.54177 54.3129 5.82669 54.3129 6.17677V7.95965Z" fill="black"/>
<path fill-rule="evenodd" clip-rule="evenodd" d="M15.6169 3.51583H12.2052C12.1562 3.51583 12.1058 3.51578 12.0543 3.51573H12.0533C11.365 3.51508 10.4594 3.51421 9.66709 3.62323C8.68461 3.75842 7.2323 4.13303 5.99199 5.40237C4.75171 6.67172 4.38567 8.15805 4.25358 9.16353C4.14705 9.97447 4.1479 10.9012 4.14854 11.6056V11.6067C4.14859 11.6595 4.14864 11.7109 4.14864 11.7611V15.2952H8.67935V11.7611C8.67935 10.0601 8.67935 9.20955 9.19569 8.6811C9.71205 8.15266 10.5431 8.15266 12.2052 8.15266H15.6169V3.51583ZM39.9713 15.2952V11.7611C39.9713 10.0601 39.9713 9.20955 39.4549 8.6811C38.9386 8.15266 38.1075 8.15266 36.4454 8.15266H32.9867V3.51583H36.4454C36.4944 3.51583 36.5447 3.51578 36.5963 3.51573H36.5973C37.2856 3.51508 38.1911 3.51421 38.9835 3.62323C39.966 3.75842 41.4182 4.13303 42.6585 5.40237C43.8988 6.67172 44.2649 8.15805 44.397 9.16353C44.5035 9.97447 44.5027 10.9012 44.502 11.6056L44.5019 11.6877V11.7V11.7611V15.2952H39.9713ZM32.9867 39.7264H36.4454C38.1075 39.7264 38.9386 39.7264 39.4549 39.198C39.9713 38.6694 39.9713 37.8191 39.9713 36.1181V32.5657H44.5019V36.1181V36.1938L44.502 36.2735C44.5027 36.9779 44.5035 37.9046 44.397 38.7155C44.2649 39.721 43.8988 41.2074 42.6585 42.4767C41.4182 43.746 39.966 44.1207 38.9835 44.2559C38.1929 44.3646 37.2895 44.364 36.6017 44.3634H36.5973C36.5454 44.3633 36.4947 44.3633 36.4454 44.3633H32.9867V39.7264ZM8.67935 32.5657V36.1181C8.67935 37.8191 8.67935 38.6694 9.19569 39.198C9.71205 39.7264 10.5431 39.7264 12.2052 39.7264H15.6169V44.3633H12.2052H12.143C12.1135 44.3633 12.0836 44.3633 12.0532 44.3634H12.0488C11.3611 44.364 10.4578 44.3646 9.66709 44.2559C8.68461 44.1207 7.2323 43.746 5.99199 42.4767C4.75171 41.2074 4.38567 39.721 4.25358 38.7155C4.14705 37.9046 4.1479 36.9779 4.14854 36.2735C4.14859 36.2206 4.14864 36.1683 4.14864 36.1181V32.5657H8.67935Z" fill="black"/>
<path d="M35.7992 17.289C35.7992 20.0827 33.5618 22.3474 30.8019 22.3474C28.0421 22.3474 25.8047 20.0827 25.8047 17.289C25.8047 14.4952 28.0421 12.2305 30.8019 12.2305C33.5618 12.2305 35.7992 14.4952 35.7992 17.289Z" fill="black"/>
<path d="M30.8019 25.8887C28.0421 25.8887 25.8047 28.1535 25.8047 30.9471V35.4997H35.7992V30.9471C35.7992 28.1535 33.5618 25.8887 30.8019 25.8887Z" fill="black"/>
<path opacity="0.3" d="M12.8438 30.8427C12.8438 28.1887 14.9692 26.0371 17.5912 26.0371H22.3386V35.6481H17.5912C14.9692 35.6481 12.8438 33.4966 12.8438 30.8427Z" fill="black"/>
<path opacity="0.3" d="M12.8438 12.377H18.3408C20.5487 12.377 22.3386 14.1887 22.3386 16.4236V21.988H12.8438V12.377Z" fill="black"/>
<path d="M160.034 34.1992C161.204 34.1992 162.082 34.5218 162.667 35.167C163.253 35.8122 163.545 36.7421 163.545 37.9566V44.4464H159.747V38.412C159.747 37.9818 159.632 37.6402 159.403 37.3873C159.187 37.1216 158.875 36.9887 158.469 36.9887C157.998 36.9887 157.616 37.1406 157.324 37.4442C157.03 37.7478 156.884 38.121 156.884 38.5638V44.4464H153.086V34.4269H156.197L156.445 35.9451C156.84 35.4137 157.355 34.9899 157.991 34.6737C158.641 34.3573 159.321 34.1992 160.034 34.1992Z" fill="black"/>
<path d="M145.949 34.1992C147.718 34.1992 149.105 34.6483 150.11 35.5465C151.128 36.4321 151.637 37.7289 151.637 39.4367C151.637 41.1446 151.128 42.4476 150.11 43.3459C149.105 44.2314 147.718 44.6743 145.949 44.6743C144.181 44.6743 142.794 44.2314 141.788 43.3459C140.783 42.4603 140.281 41.1572 140.281 39.4367C140.281 37.7162 140.783 36.4131 141.788 35.5276C142.794 34.642 144.181 34.1992 145.949 34.1992ZM145.949 36.761C144.702 36.761 144.079 37.4758 144.079 38.9053V39.9871C144.079 41.4039 144.702 42.1124 145.949 42.1124C147.209 42.1124 147.838 41.4039 147.838 39.9871V38.9053C147.838 37.4758 147.209 36.761 145.949 36.761Z" fill="black"/>
<path d="M134.898 33.2513V30.6895H138.697V33.2513H134.898ZM134.898 44.4474V34.4279H138.697V44.4474H134.898Z" fill="black"/>
<path d="M133.379 34.4269V36.9887H131.241V40.803C131.241 41.2585 131.317 41.5937 131.47 41.8087C131.623 42.0112 131.903 42.1124 132.31 42.1124H133.379V44.3326C133.074 44.4339 132.679 44.516 132.195 44.5793C131.712 44.6426 131.292 44.6742 130.936 44.6742C129.816 44.6742 128.951 44.4718 128.34 44.0669C127.742 43.6621 127.443 42.9726 127.443 41.9985V36.9887H126.031V34.4269H127.595L128.416 31.3906H131.241V34.4269H133.379Z" fill="black"/>
<path d="M119.616 34.1992C121.156 34.1992 122.409 34.4585 123.376 34.9772C124.343 35.4833 124.826 36.3119 124.826 37.4631V41.3723C124.826 41.5874 124.877 41.7645 124.98 41.9036C125.081 42.0428 125.234 42.1124 125.437 42.1124H126.125V44.2947C126.086 44.32 125.985 44.3643 125.819 44.4275C125.666 44.4781 125.444 44.5287 125.151 44.5793C124.858 44.6426 124.521 44.6743 124.14 44.6743C123.402 44.6743 122.791 44.5666 122.307 44.3516C121.837 44.1239 121.512 43.8139 121.334 43.4217C120.85 43.8013 120.309 44.1049 119.712 44.3326C119.114 44.5604 118.414 44.6743 117.612 44.6743C115.245 44.6743 114.062 43.7381 114.062 41.8657C114.062 40.8916 114.323 40.1515 114.845 39.6455C115.379 39.1268 116.142 38.7726 117.135 38.5828C118.127 38.393 119.425 38.2981 121.029 38.2981V37.8047C121.029 37.4125 120.889 37.1152 120.609 36.9128C120.341 36.7104 119.992 36.6092 119.559 36.6092C119.164 36.6092 118.821 36.6788 118.528 36.8179C118.248 36.9571 118.108 37.1785 118.108 37.4821V37.5581H114.368C114.355 37.4948 114.348 37.4062 114.348 37.2923C114.348 36.3436 114.8 35.5908 115.704 35.0341C116.62 34.4775 117.924 34.1992 119.616 34.1992ZM121.029 40.0819C119.947 40.0819 119.145 40.2021 118.624 40.4425C118.115 40.6702 117.86 40.9801 117.86 41.3723C117.86 42.0049 118.293 42.3211 119.159 42.3211C119.655 42.3211 120.087 42.1883 120.456 41.9226C120.838 41.657 121.029 41.328 121.029 40.9358V40.0819Z" fill="black"/>
<path d="M107.497 34.1992C109.151 34.1992 110.487 34.5535 111.505 35.2618C112.536 35.9577 113.05 37.0267 113.05 38.4689H109.367C109.367 37.3304 108.744 36.761 107.497 36.761C106.25 36.761 105.626 37.4758 105.626 38.9053V39.9871C105.626 41.4039 106.275 42.1124 107.573 42.1124C108.871 42.1124 109.519 41.5305 109.519 40.3665H113.05C113.05 41.8214 112.536 42.9031 111.505 43.6115C110.487 44.32 109.151 44.6743 107.497 44.6743C105.728 44.6743 104.341 44.2314 103.336 43.3459C102.331 42.4603 101.828 41.1572 101.828 39.4367C101.828 37.7162 102.331 36.4131 103.336 35.5276C104.341 34.642 105.728 34.1992 107.497 34.1992Z" fill="black"/>
<path d="M93.9266 30.4609C94.1811 30.4609 94.4929 30.499 94.8618 30.5748C95.2308 30.6381 95.5299 30.714 95.7589 30.8025V33.0228H95.0718C94.6646 33.0228 94.391 33.0987 94.2511 33.2505C94.1111 33.4024 94.0411 33.6617 94.0411 34.0286V34.4271H95.7589V36.9888H94.0411V44.4466H90.2432V36.9888H88.9453V34.4271H90.2432V34.0096C90.2432 32.7191 90.5612 31.8083 91.1974 31.2769C91.8336 30.733 92.7434 30.4609 93.9266 30.4609ZM96.5604 33.2505V30.6886H100.358V33.2505H96.5604ZM96.5604 44.4466V34.4271H100.358V44.4466H96.5604Z" fill="black"/>
<path d="M84.0938 33.2513V30.6895H87.8918V33.2513H84.0938ZM84.0938 44.4474V34.4279H87.8918V44.4474H84.0938Z" fill="black"/>
<path d="M81.9859 34.1816C82.2785 34.1816 82.5393 34.2196 82.7683 34.2955C82.9973 34.3588 83.1119 34.3967 83.1119 34.4094V37.5784H81.8904C81.1016 37.5784 80.529 37.7809 80.1727 38.1857C79.8292 38.5905 79.6574 39.1914 79.6574 39.9885V44.4479H75.8594V34.4284H78.9704L79.2184 35.9465C79.4474 35.3646 79.8101 34.928 80.3064 34.6371C80.8025 34.3334 81.3623 34.1816 81.9859 34.1816Z" fill="black"/>
<path d="M68.723 34.1992C70.568 34.1992 71.9739 34.6293 72.941 35.4896C73.9207 36.3499 74.4106 37.6656 74.4106 39.4367V40.0819H66.8526C66.8526 40.8031 67.0118 41.347 67.3298 41.7139C67.6607 42.0807 68.176 42.2642 68.8758 42.2642C69.512 42.2642 69.9764 42.1314 70.269 41.8657C70.5743 41.6001 70.7271 41.2458 70.7271 40.8031H74.4106C74.4106 42.0175 73.9461 42.9663 73.0173 43.6495C72.0885 44.3326 70.7334 44.6743 68.9521 44.6743C67.0818 44.6743 65.6313 44.2441 64.6006 43.3838C63.57 42.5109 63.0547 41.1952 63.0547 39.4367C63.0547 37.7162 63.5572 36.4131 64.5624 35.5276C65.5676 34.642 66.9545 34.1992 68.723 34.1992ZM68.8758 36.6092C67.6797 36.6092 67.0118 37.1721 66.8718 38.2981H70.5743C70.5743 37.7794 70.4217 37.3683 70.1163 37.0646C69.8236 36.761 69.4101 36.6092 68.8758 36.6092Z" fill="black"/>
<path d="M53.8443 44.4464L49.1875 31.3906H53.6916L56.3255 40.1198H56.4017L59.0547 31.3906H63.368L58.7302 44.4464H53.8443Z" fill="black"/>
<path d="M123.191 26.5949C122.668 27.9992 122.026 29.0618 121.263 29.7829C120.512 30.5167 119.456 30.8836 118.095 30.8836C117.267 30.8836 116.537 30.7697 115.9 30.542V28.2838H117.427C118.381 28.2838 118.947 27.822 119.125 26.8985L115.117 16.8789H119.201L121.129 23.5397H121.263L123.038 16.8789H126.779L123.191 26.5949Z" fill="black"/>
<path d="M114.879 16.8799V19.4418H112.741V23.2561C112.741 23.7115 112.818 24.0467 112.971 24.2618C113.124 24.4642 113.404 24.5654 113.81 24.5654H114.879V26.7857C114.574 26.8869 114.18 26.9692 113.696 27.0323C113.212 27.0956 112.792 27.1273 112.436 27.1273C111.317 27.1273 110.451 26.9248 109.841 26.52C109.243 26.1151 108.944 25.4257 108.944 24.4516V19.4418H107.531V16.8799H109.096L109.917 13.8438H112.741V16.8799H114.879Z" fill="black"/>
<path d="M102.32 15.7024V13.1406H106.119V15.7024H102.32ZM102.32 26.8986V16.879H106.119V26.8986H102.32Z" fill="black"/>
<path d="M100.809 16.8799V19.4418H98.6711V23.2561C98.6711 23.7115 98.7473 24.0467 98.8999 24.2618C99.0534 24.4642 99.3334 24.5654 99.7399 24.5654H100.809V26.7857C100.504 26.8869 100.109 26.9692 99.626 27.0323C99.1422 27.0956 98.7222 27.1273 98.366 27.1273C97.246 27.1273 96.381 26.9248 95.7704 26.52C95.1723 26.1151 94.8733 25.4257 94.8733 24.4516V19.4418H93.4609V16.8799H95.026L95.8466 13.8438H98.6711V16.8799H100.809Z" fill="black"/>
<path d="M88.6893 16.6523C89.8599 16.6523 90.7378 16.9749 91.3231 17.6201C91.9084 18.2653 92.2011 19.1952 92.2011 20.4097V26.8997H88.403V20.8651C88.403 20.435 88.2885 20.0935 88.0595 19.8404C87.8432 19.5747 87.5314 19.4419 87.1243 19.4419C86.6535 19.4419 86.2718 19.5937 85.9792 19.8973C85.6865 20.201 85.5401 20.5741 85.5401 21.017V26.8997H81.7422V16.8801H84.8531L85.1012 18.3982C85.4956 17.8668 86.0109 17.443 86.6471 17.1268C87.296 16.8105 87.9767 16.6523 88.6893 16.6523Z" fill="black"/>
<path d="M74.606 16.6523C76.4509 16.6523 77.8568 17.0825 78.8238 17.9428C79.8036 18.803 80.2934 20.1187 80.2934 21.8898V22.535H72.7356C72.7356 23.2562 72.8946 23.8001 73.2127 24.167C73.5435 24.5339 74.0588 24.7174 74.7586 24.7174C75.3948 24.7174 75.8592 24.5845 76.1518 24.3188C76.4572 24.0532 76.6099 23.6989 76.6099 23.2562H80.2934C80.2934 24.4707 79.829 25.4194 78.9002 26.1027C77.9714 26.7858 76.6163 27.1274 74.835 27.1274C72.9646 27.1274 71.5141 26.6972 70.4835 25.837C69.4529 24.964 68.9375 23.6483 68.9375 21.8898C68.9375 20.1693 69.4401 18.8663 70.4453 17.9807C71.4505 17.0951 72.8373 16.6523 74.606 16.6523ZM74.7586 19.0623C73.5626 19.0623 72.8946 19.6254 72.7547 20.7513H76.4572C76.4572 20.2326 76.3046 19.8214 75.9992 19.5178C75.7065 19.2142 75.293 19.0623 74.7586 19.0623Z" fill="black"/>
<path d="M64.3728 26.8986L64.0484 25.4753C63.3105 26.5759 62.2416 27.1263 60.842 27.1263C59.4807 27.1263 58.4309 26.6834 57.6929 25.7979C56.955 24.9123 56.5859 23.603 56.5859 21.8698C56.5859 20.1493 56.955 18.8525 57.6929 17.9796C58.4309 17.094 59.4807 16.6512 60.842 16.6512C61.9999 16.6512 62.9415 17.0371 63.6667 17.8088V13.1406H67.4647V26.8986H64.3728ZM62.0254 19.4408C60.9312 19.4408 60.384 20.0924 60.384 21.3954V22.4012C60.384 23.6915 60.9312 24.3367 62.0254 24.3367C62.5852 24.3367 63.0051 24.1406 63.285 23.7484C63.5649 23.3563 63.7049 22.8439 63.7049 22.2114V21.5852C63.7049 20.9526 63.5649 20.4402 63.285 20.048C63.0051 19.6432 62.5852 19.4408 62.0254 19.4408Z" fill="black"/>
<path d="M50.4688 26.8996V13.8438H54.6866V26.8996H50.4688Z" fill="black"/>
</svg>
